<svg width="415" height="398" xmlns="http://www.w3.org/2000/svg" xmlns:xlink="http://www.w3.org/1999/xlink" overflow="hidden"><defs><clipPath id="clip0"><rect x="81" y="354" width="415" height="398"/></clipPath></defs><g clip-path="url(#clip0)" transform="translate(-81 -354)"><path d="M364.833 161.688 348.25 161.688 348.25 116.083C348.25 106.963 340.788 99.5 331.667 99.5L33.1667 99.5C24.0458 99.5 16.5833 106.963 16.5833 116.083L16.5833 281.917C16.5833 291.038 24.0458 298.5 33.1667 298.5L331.667 298.5C340.788 298.5 348.25 291.038 348.25 281.917L348.25 236.313 364.833 236.313C373.954 236.313 381.417 228.85 381.417 219.729L381.417 178.271C381.417 169.15 373.954 161.688 364.833 161.688ZM323.375 273.625 41.4583 273.625 41.4583 124.375 323.375 124.375 323.375 273.625Z" fill="#ED7D31" transform="matrix(1.04271 0 0 1 81.0001 354)"/><path d="M58.0417 140.958 306.792 140.958 306.792 257.042 58.0417 257.042Z" fill="#ED7D31" transform="matrix(1.04271 0 0 1 81.0001 354)"/><text font-family="Calibri,Calibri_MSFontService,sans-serif" font-weight="700" font-size="83" transform="matrix(1 0 0 1 198 584)">1267</text></g></svg>