<svg width="81" height="78" xmlns="http://www.w3.org/2000/svg" xmlns:xlink="http://www.w3.org/1999/xlink" overflow="hidden"><defs><clipPath id="clip0"><rect x="1134" y="118" width="81" height="78"/></clipPath></defs><g clip-path="url(#clip0)" transform="translate(-1134 -118)"><path d="M59.3125 66.625 18.6875 66.625 18.6875 11.375 59.3125 11.375 59.3125 66.625ZM64.1875 6.5 13.8125 6.5 13.8125 71.5 64.1875 71.5 64.1875 6.5Z" transform="matrix(1.03846 0 0 1 1134 118)"/><path d="M23.5625 53.625 38.1875 53.625 38.1875 56.875 23.5625 56.875Z" transform="matrix(1.03846 0 0 1 1134 118)"/><path d="M23.5625 17.875 54.4375 17.875 54.4375 21.125 23.5625 21.125Z" transform="matrix(1.03846 0 0 1 1134 118)"/><path d="M23.5625 24.375 54.4375 24.375 54.4375 27.625 23.5625 27.625Z" transform="matrix(1.03846 0 0 1 1134 118)"/><path d="M23.5625 30.875 54.4375 30.875 54.4375 34.125 23.5625 34.125Z" transform="matrix(1.03846 0 0 1 1134 118)"/><path d="M39 37.375 54.4375 37.375 54.4375 40.625 39 40.625Z" transform="matrix(1.03846 0 0 1 1134 118)"/><path d="M51.9188 60.9375 48.75 57.7687 45.5812 60.9375 43.0625 58.4188 46.2313 55.25 43.0625 52.0812 45.5812 49.5625 48.75 52.7313 51.9188 49.5625 54.4375 52.0812 51.2687 55.25 54.4375 58.4188Z" transform="matrix(1.03846 0 0 1 1134 118)"/></g></svg>