<svg width="1011" height="718" xmlns="http://www.w3.org/2000/svg" xmlns:xlink="http://www.w3.org/1999/xlink" overflow="hidden"><defs><clipPath id="clip0"><rect x="2633" y="488" width="1011" height="718"/></clipPath></defs><g clip-path="url(#clip0)" transform="translate(-2633 -488)"><path d="M2635.77 490.769 2883.27 490.769 2883.27 567.769 2635.77 567.769Z" fill-rule="evenodd"/><path d="M2883.27 490.769 3135.13 490.769 3135.13 567.769 2883.27 567.769Z" fill-rule="evenodd"/><path d="M3135.13 490.769 3387 490.769 3387 567.769 3135.13 567.769Z" fill-rule="evenodd"/><path d="M3387 490.769 3638.86 490.769 3638.86 567.769 3387 567.769Z" fill-rule="evenodd"/><path d="M2635.77 567.769 2883.27 567.769 2883.27 688.769 2635.77 688.769Z" fill="#FFF2CC" fill-rule="evenodd"/><path d="M2883.27 567.769 3135.13 567.769 3135.13 688.769 2883.27 688.769Z" fill="#FFF2CC" fill-rule="evenodd"/><path d="M3135.13 567.769 3387 567.769 3387 688.769 3135.13 688.769Z" fill="#FFF2CC" fill-rule="evenodd"/><path d="M3387 567.769 3638.86 567.769 3638.86 688.769 3387 688.769Z" fill="#FFF2CC" fill-rule="evenodd"/><path d="M2883.27 488.477 2883.27 1054.06" stroke="#000000" stroke-width="4.58333" stroke-linejoin="round" stroke-miterlimit="10" fill="none" fill-rule="evenodd"/><path d="M3135.13 488.477 3135.13 1054.06" stroke="#000000" stroke-width="4.58333" stroke-linejoin="round" stroke-miterlimit="10" fill="none" fill-rule="evenodd"/><path d="M3387 488.477 3387 1051.77" stroke="#000000" stroke-width="4.58333" stroke-linejoin="round" stroke-miterlimit="10" fill="none" fill-rule="evenodd"/><path d="M3387 1051.77 3387 1174.64" stroke="#000000" stroke-width="4.58333" stroke-linejoin="round" stroke-miterlimit="10" fill="none" fill-rule="evenodd"/><path d="M2633.48 567.769 3641.15 567.769" stroke="#000000" stroke-width="4.58333" stroke-linejoin="round" stroke-miterlimit="10" fill="none" fill-rule="evenodd"/><path d="M2633.48 688.769 3641.15 688.769" stroke="#000000" stroke-width="4.58333" stroke-linejoin="round" stroke-miterlimit="10" fill="none" fill-rule="evenodd"/><path d="M2633.48 809.769 3641.15 809.769" stroke="#000000" stroke-width="4.58333" stroke-linejoin="round" stroke-miterlimit="10" fill="none" fill-rule="evenodd"/><path d="M2633.48 930.769 3641.15 930.769" stroke="#000000" stroke-width="4.58333" stroke-linejoin="round" stroke-miterlimit="10" fill="none" fill-rule="evenodd"/><path d="M2633.48 1051.77 2883.27 1051.77" stroke="#000000" stroke-width="4.58333" stroke-linejoin="round" stroke-miterlimit="10" fill="none" fill-rule="evenodd"/><path d="M2883.27 1051.77 3387 1051.77" stroke="#000000" stroke-width="4.58333" stroke-linejoin="round" stroke-miterlimit="10" fill="none" fill-rule="evenodd"/><path d="M3387 1051.77 3641.15 1051.77" stroke="#000000" stroke-width="4.58333" stroke-linejoin="round" stroke-miterlimit="10" fill="none" fill-rule="evenodd"/><path d="M2635.77 488.477 2635.77 1051.77" stroke="#000000" stroke-width="4.58333" stroke-linejoin="round" stroke-miterlimit="10" fill="none" fill-rule="evenodd"/><path d="M2635.77 1051.77 2635.77 1174.64" stroke="#000000" stroke-width="4.58333" stroke-linejoin="round" stroke-miterlimit="10" fill="none" fill-rule="evenodd"/><path d="M3638.86 488.477 3638.86 1051.77" stroke="#000000" stroke-width="4.58333" stroke-linejoin="round" stroke-miterlimit="10" fill="none" fill-rule="evenodd"/><path d="M3638.86 1051.77 3638.86 1174.64" stroke="#000000" stroke-width="4.58333" stroke-linejoin="round" stroke-miterlimit="10" fill="none" fill-rule="evenodd"/><path d="M2633.48 490.769 3641.15 490.769" stroke="#000000" stroke-width="4.58333" stroke-linejoin="round" stroke-miterlimit="10" fill="none" fill-rule="evenodd"/><path d="M2633.48 1172.35 3641.15 1172.35" stroke="#000000" stroke-width="4.58333" stroke-linejoin="round" stroke-miterlimit="10" fill="none" fill-rule="evenodd"/><text fill="#FFFFFF" font-family="Calibri,Calibri_MSFontService,sans-serif" font-weight="700" font-size="37" transform="matrix(1 0 0 1 2668.77 541)">Contract ID<tspan font-size="37" x="247.5" y="0">Generator</tspan><tspan font-size="37" x="499.364" y="0">Quantity</tspan><tspan font-size="37" x="751.229" y="0">Timeline</tspan><tspan fill="#000000" font-weight="400" font-size="37" x="0" y="77">1234</tspan><tspan fill="#000000" font-weight="400" font-size="37" x="247.5" y="77">Generator 3</tspan><tspan fill="#000000" font-weight="400" font-size="37" x="499.364" y="77">20KW</tspan><tspan fill="#000000" font-weight="400" font-size="37" x="751.229" y="77">1</tspan><tspan fill="#000000" font-weight="400" font-size="24" x="769.562" y="66">st</tspan><tspan fill="#000000" font-weight="400" font-size="37" x="795.343" y="77">March</tspan><tspan fill="#000000" font-weight="400" font-size="37" x="892.166" y="77">-</tspan><tspan fill="#000000" font-weight="400" font-size="37" x="751.229" y="121">30</tspan><tspan fill="#000000" font-weight="400" font-size="24" x="787.895" y="110">th</tspan><tspan fill="#000000" font-weight="400" font-size="37" x="816.541" y="121">March</tspan><tspan fill="#000000" font-weight="400" font-size="37" x="0" y="198">2212</tspan><tspan fill="#000000" font-weight="400" font-size="37" x="247.5" y="198">Generator 4</tspan><tspan fill="#000000" font-weight="400" font-size="37" x="499.364" y="198">50KW</tspan><tspan fill="#000000" font-weight="400" font-size="37" x="751.229" y="198">1</tspan><tspan fill="#000000" font-weight="400" font-size="24" x="769.562" y="187">st</tspan><tspan fill="#000000" font-weight="400" font-size="37" x="795.343" y="198">July</tspan><tspan fill="#000000" font-weight="400" font-size="37" x="851.489" y="198">-</tspan><tspan fill="#000000" font-weight="400" font-size="37" x="870.968" y="198">30</tspan><tspan fill="#000000" font-weight="400" font-size="24" x="907.635" y="187">th</tspan><tspan fill="#000000" font-weight="400" font-size="37" x="751.229" y="242">July</tspan><tspan fill="#000000" font-weight="400" font-size="37" x="0" y="319">2324</tspan><tspan fill="#000000" font-weight="400" font-size="37" x="247.5" y="319">Generator</tspan><tspan fill="#000000" font-weight="400" font-size="37" x="409.063" y="319">1</tspan><tspan fill="#000000" font-weight="400" font-size="37" x="499.364" y="319">120KW</tspan><tspan fill="#000000" font-weight="400" font-size="37" x="751.229" y="319">1</tspan><tspan fill="#000000" font-weight="400" font-size="24" x="769.562" y="308">st</tspan><tspan fill="#000000" font-weight="400" font-size="37" x="795.343" y="319">Aug</tspan><tspan fill="#000000" font-weight="400" font-size="37" x="853.208" y="319">-</tspan><tspan fill="#000000" font-weight="400" font-size="37" x="872.687" y="319">30</tspan><tspan fill="#000000" font-weight="400" font-size="24" x="909.354" y="308">th</tspan><tspan fill="#000000" font-weight="400" font-size="37" x="751.229" y="363">Aug</tspan><tspan fill="#000000" font-weight="400" font-size="37" x="0" y="440">9784</tspan><tspan fill="#000000" font-weight="400" font-size="37" x="247.5" y="440">Generator</tspan><tspan fill="#000000" font-weight="400" font-size="37" x="409.063" y="440">2</tspan><tspan fill="#000000" font-weight="400" font-size="37" x="499.364" y="440">100KW</tspan><tspan fill="#000000" font-weight="400" font-size="37" x="751.229" y="440">1</tspan><tspan fill="#000000" font-weight="400" font-size="24" x="769.562" y="429">st</tspan><tspan fill="#000000" font-weight="400" font-size="37" x="795.343" y="440">April</tspan><tspan fill="#000000" font-weight="400" font-size="37" x="865.812" y="440">-</tspan><tspan fill="#000000" font-weight="400" font-size="37" x="877.27" y="440">30</tspan><tspan fill="#000000" font-weight="400" font-size="24" x="913.937" y="429">th</tspan><tspan fill="#000000" font-weight="400" font-size="37" x="751.229" y="484">April</tspan></text><rect x="3395" y="1081" width="231" height="106" fill="#E7E6E6"/><text font-family="Calibri,Calibri_MSFontService,sans-serif" font-weight="700" font-size="60" transform="matrix(1 0 0 1 3430.66 1154)">Next &gt;</text></g></svg>