<svg width="1011" height="714" xmlns="http://www.w3.org/2000/svg" xmlns:xlink="http://www.w3.org/1999/xlink" overflow="hidden"><defs><clipPath id="clip0"><rect x="1592" y="492" width="1011" height="714"/></clipPath></defs><g clip-path="url(#clip0)" transform="translate(-1592 -492)"><path d="M1595 495 1842.5 495 1842.5 572 1595 572Z" fill-rule="evenodd"/><path d="M1842.5 495 2094.36 495 2094.36 572 1842.5 572Z" fill-rule="evenodd"/><path d="M2094.36 495 2346.23 495 2346.23 572 2094.36 572Z" fill-rule="evenodd"/><path d="M2346.23 495 2598.09 495 2598.09 572 2346.23 572Z" fill-rule="evenodd"/><path d="M1595 572 1842.5 572 1842.5 693 1595 693Z" fill="#FFF2CC" fill-rule="evenodd"/><path d="M1842.5 572 2094.36 572 2094.36 693 1842.5 693Z" fill="#FFF2CC" fill-rule="evenodd"/><path d="M2094.36 572 2346.23 572 2346.23 693 2094.36 693Z" fill="#FFF2CC" fill-rule="evenodd"/><path d="M2346.23 572 2598.09 572 2598.09 693 2346.23 693Z" fill="#FFF2CC" fill-rule="evenodd"/><path d="M1842.5 492.708 1842.5 1058.29" stroke="#000000" stroke-width="4.58333" stroke-linejoin="round" stroke-miterlimit="10" fill="none" fill-rule="evenodd"/><path d="M2094.36 492.708 2094.36 1058.29" stroke="#000000" stroke-width="4.58333" stroke-linejoin="round" stroke-miterlimit="10" fill="none" fill-rule="evenodd"/><path d="M2346.23 492.708 2346.23 1056" stroke="#000000" stroke-width="4.58333" stroke-linejoin="round" stroke-miterlimit="10" fill="none" fill-rule="evenodd"/><path d="M2346.23 1056 2346.23 1178.87" stroke="#000000" stroke-width="4.58333" stroke-linejoin="round" stroke-miterlimit="10" fill="none" fill-rule="evenodd"/><path d="M1592.71 572 2600.38 572" stroke="#000000" stroke-width="4.58333" stroke-linejoin="round" stroke-miterlimit="10" fill="none" fill-rule="evenodd"/><path d="M1592.71 693 2600.38 693" stroke="#000000" stroke-width="4.58333" stroke-linejoin="round" stroke-miterlimit="10" fill="none" fill-rule="evenodd"/><path d="M1592.71 814 2600.38 814" stroke="#000000" stroke-width="4.58333" stroke-linejoin="round" stroke-miterlimit="10" fill="none" fill-rule="evenodd"/><path d="M1592.71 935 2600.38 935" stroke="#000000" stroke-width="4.58333" stroke-linejoin="round" stroke-miterlimit="10" fill="none" fill-rule="evenodd"/><path d="M1592.71 1056 1842.5 1056" stroke="#000000" stroke-width="4.58333" stroke-linejoin="round" stroke-miterlimit="10" fill="none" fill-rule="evenodd"/><path d="M1842.5 1056 2346.23 1056" stroke="#000000" stroke-width="4.58333" stroke-linejoin="round" stroke-miterlimit="10" fill="none" fill-rule="evenodd"/><path d="M2346.23 1056 2600.38 1056" stroke="#000000" stroke-width="4.58333" stroke-linejoin="round" stroke-miterlimit="10" fill="none" fill-rule="evenodd"/><path d="M1595 492.708 1595 1056" stroke="#000000" stroke-width="4.58333" stroke-linejoin="round" stroke-miterlimit="10" fill="none" fill-rule="evenodd"/><path d="M1595 1056 1595 1178.87" stroke="#000000" stroke-width="4.58333" stroke-linejoin="round" stroke-miterlimit="10" fill="none" fill-rule="evenodd"/><path d="M2598.09 492.708 2598.09 1056" stroke="#000000" stroke-width="4.58333" stroke-linejoin="round" stroke-miterlimit="10" fill="none" fill-rule="evenodd"/><path d="M2598.09 1056 2598.09 1178.87" stroke="#000000" stroke-width="4.58333" stroke-linejoin="round" stroke-miterlimit="10" fill="none" fill-rule="evenodd"/><path d="M1592.71 495 2600.38 495" stroke="#000000" stroke-width="4.58333" stroke-linejoin="round" stroke-miterlimit="10" fill="none" fill-rule="evenodd"/><path d="M1592.71 1176.58 2600.38 1176.58" stroke="#000000" stroke-width="4.58333" stroke-linejoin="round" stroke-miterlimit="10" fill="none" fill-rule="evenodd"/><text fill="#FFFFFF" font-family="Calibri,Calibri_MSFontService,sans-serif" font-weight="700" font-size="37" transform="matrix(1 0 0 1 1628 546)">Contract ID<tspan font-size="37" x="247.5" y="0">Generator</tspan><tspan font-size="37" x="499.364" y="0">Quantity</tspan><tspan font-size="37" x="751.229" y="0">Timeline</tspan><tspan fill="#000000" font-weight="400" font-size="37" x="0" y="77">1234</tspan><tspan fill="#000000" font-weight="400" font-size="37" x="247.5" y="77">Generator 3</tspan><tspan fill="#000000" font-weight="400" font-size="37" x="499.364" y="77">20KW</tspan><tspan fill="#000000" font-weight="400" font-size="37" x="751.229" y="77">1</tspan><tspan fill="#000000" font-weight="400" font-size="24" x="769.562" y="66">st</tspan><tspan fill="#000000" font-weight="400" font-size="37" x="795.343" y="77">March</tspan><tspan fill="#000000" font-weight="400" font-size="37" x="892.166" y="77">-</tspan><tspan fill="#000000" font-weight="400" font-size="37" x="751.229" y="121">30</tspan><tspan fill="#000000" font-weight="400" font-size="24" x="787.895" y="110">th</tspan><tspan fill="#000000" font-weight="400" font-size="37" x="816.541" y="121">March</tspan><tspan fill="#000000" font-weight="400" font-size="37" x="0" y="198">2212</tspan><tspan fill="#000000" font-weight="400" font-size="37" x="247.5" y="198">Generator 4</tspan><tspan fill="#000000" font-weight="400" font-size="37" x="499.364" y="198">50KW</tspan><tspan fill="#000000" font-weight="400" font-size="37" x="751.229" y="198">1</tspan><tspan fill="#000000" font-weight="400" font-size="24" x="769.562" y="187">st</tspan><tspan fill="#000000" font-weight="400" font-size="37" x="795.343" y="198">July</tspan><tspan fill="#000000" font-weight="400" font-size="37" x="851.489" y="198">-</tspan><tspan fill="#000000" font-weight="400" font-size="37" x="870.968" y="198">30</tspan><tspan fill="#000000" font-weight="400" font-size="24" x="907.635" y="187">th</tspan><tspan fill="#000000" font-weight="400" font-size="37" x="751.229" y="242">July</tspan><tspan fill="#000000" font-weight="400" font-size="37" x="0" y="319">2324</tspan><tspan fill="#000000" font-weight="400" font-size="37" x="247.5" y="319">Generator</tspan><tspan fill="#000000" font-weight="400" font-size="37" x="409.063" y="319">1</tspan><tspan fill="#000000" font-weight="400" font-size="37" x="499.364" y="319">120KW</tspan><tspan fill="#000000" font-weight="400" font-size="37" x="751.229" y="319">1</tspan><tspan fill="#000000" font-weight="400" font-size="24" x="769.562" y="308">st</tspan><tspan fill="#000000" font-weight="400" font-size="37" x="795.343" y="319">Aug</tspan><tspan fill="#000000" font-weight="400" font-size="37" x="853.208" y="319">-</tspan><tspan fill="#000000" font-weight="400" font-size="37" x="872.687" y="319">30</tspan><tspan fill="#000000" font-weight="400" font-size="24" x="909.354" y="308">th</tspan><tspan fill="#000000" font-weight="400" font-size="37" x="751.229" y="363">Aug</tspan><tspan fill="#000000" font-weight="400" font-size="37" x="0" y="440">9784</tspan><tspan fill="#000000" font-weight="400" font-size="37" x="247.5" y="440">Generator</tspan><tspan fill="#000000" font-weight="400" font-size="37" x="409.063" y="440">2</tspan><tspan fill="#000000" font-weight="400" font-size="37" x="499.364" y="440">100KW</tspan><tspan fill="#000000" font-weight="400" font-size="37" x="751.229" y="440">1</tspan><tspan fill="#000000" font-weight="400" font-size="24" x="769.562" y="429">st</tspan><tspan fill="#000000" font-weight="400" font-size="37" x="795.343" y="440">April</tspan><tspan fill="#000000" font-weight="400" font-size="37" x="865.812" y="440">-</tspan><tspan fill="#000000" font-weight="400" font-size="37" x="877.27" y="440">30</tspan><tspan fill="#000000" font-weight="400" font-size="24" x="913.937" y="429">th</tspan><tspan fill="#000000" font-weight="400" font-size="37" x="751.229" y="484">April</tspan></text><rect x="2354" y="1081" width="232" height="106" fill="#E7E6E6"/><text font-family="Calibri,Calibri_MSFontService,sans-serif" font-weight="700" font-size="60" transform="matrix(1 0 0 1 2389.89 1154)">Next &gt;</text></g></svg>