<svg width="51" height="56" xmlns="http://www.w3.org/2000/svg" xmlns:xlink="http://www.w3.org/1999/xlink" overflow="hidden"><defs><clipPath id="clip0"><rect x="42" y="371" width="51" height="56"/></clipPath></defs><g clip-path="url(#clip0)" transform="translate(-42 -371)"><path d="M18.0195 21.488 15.1597 23.5514 13.9628 47.8752 11.7332 47.8752 11.7332 50.0002 13.8582 50.0002 20.7644 50.0002 22.8894 50.0002 22.8894 47.8752 20.6252 47.8752 18.9067 21.6707 18.0195 21.488Z" transform="matrix(1 0 0 1.09804 42 371)"/><path d="M14.2019 14.8808 14.45 15.2357C14.5938 15.002 14.7688 14.789 14.9701 14.6025 15.9939 13.6761 17.5097 13.5458 18.6766 14.2837L18.7829 13.8226 14.7831 1.78287C14.6249 1.27898 14.0883 0.998692 13.5844 1.15683 13.1458 1.29448 12.8671 1.72477 12.9211 2.18131Z" transform="matrix(1 0 0 1.09804 42 371)"/><path d="M31.9403 20.7926 20.4282 15.6087 19.8581 15.6719C20.5331 17.1523 19.9124 18.9012 18.4551 19.6249L19.0028 20.0648 31.3544 22.6052C31.8693 22.7225 32.3818 22.4002 32.4992 21.8853 32.602 21.4338 32.3666 20.9735 31.9403 20.7926Z" transform="matrix(1 0 0 1.09804 42 371)"/><path d="M16.8481 19.9713C15.241 19.8817 13.9798 18.5595 13.966 16.9501L13.3817 17.1503 5.03731 26.545C4.68175 26.9355 4.71007 27.5403 5.10057 27.8958 5.43793 28.203 5.94527 28.2291 6.31231 27.9581L16.5973 20.5514Z" transform="matrix(1 0 0 1.09804 42 371)"/><path d="M16.0379 15.7856C15.4262 16.3388 15.3788 17.2831 15.932 17.8948 16.4853 18.5065 17.4296 18.5539 18.0413 18.0007 18.6528 17.4476 18.7004 16.5035 18.1475 15.8918 17.5945 15.2799 16.6502 15.2322 16.0383 15.7852 16.0382 15.7853 16.038 15.7855 16.0379 15.7856Z" transform="matrix(1 0 0 1.09804 42 371)"/><path d="M37.1832 15.7431 36.1941 38.3127 34.5769 38.3127 34.5769 39.9064 42.5457 39.9064 42.5457 38.3127 40.9291 38.3127 40.0738 18.6416 37.1832 15.7431Z" transform="matrix(1 0 0 1.09804 42 371)"/><path d="M26.9875 15.3149 36.8055 14.9186 37.3819 14.5414C36.4227 13.8842 36.1779 12.5738 36.8351 11.6146 36.8503 11.5924 36.866 11.5705 36.882 11.5488 36.8868 11.5425 36.8937 11.5372 36.899 11.5303L36.1808 11.3454 26.7676 13.8555C26.3722 13.967 26.1422 14.378 26.2537 14.7733 26.3459 15.1002 26.6479 15.3231 26.9875 15.3149Z" transform="matrix(1 0 0 1.09804 42 371)"/><path d="M38.276 10.7084C38.3815 10.6924 38.4881 10.6844 38.5948 10.6845 39.4564 10.6908 40.2297 11.2147 40.5551 12.0126L41.0959 11.4968 43.6544 2.00228C43.7554 1.60414 43.5146 1.19947 43.1165 1.09843 42.7868 1.01479 42.4425 1.16535 42.2801 1.46413L37.681 10.2266 37.6986 10.8927C37.8812 10.8038 38.0756 10.7417 38.276 10.7084Z" transform="matrix(1 0 0 1.09804 42 371)"/><path d="M46.6299 21.6314 41.3977 13.3583 40.707 13.0013C40.6254 13.9763 39.8835 14.7671 38.9157 14.9106 38.8102 14.9263 38.7036 14.9343 38.5969 14.9345 38.5124 14.9318 38.4281 14.924 38.3446 14.9111L38.5757 15.631 45.4819 22.5532C45.7822 22.8334 46.2528 22.8173 46.5331 22.517 46.7582 22.2759 46.7975 21.9154 46.6299 21.6314Z" transform="matrix(1 0 0 1.09804 42 371)"/><path d="M38.7536 13.8598C39.3338 13.7719 39.7329 13.2303 39.645 12.6501 39.5571 12.0699 39.0155 11.6709 38.4354 11.7587 37.8552 11.8466 37.4561 12.3882 37.544 12.9683 37.6318 13.5485 38.1734 13.9476 38.7536 13.8598 38.7536 13.8598 38.7536 13.8598 38.7536 13.8598Z" transform="matrix(1 0 0 1.09804 42 371)"/></g></svg>