<svg width="60" height="62" xmlns="http://www.w3.org/2000/svg" xmlns:xlink="http://www.w3.org/1999/xlink" overflow="hidden"><defs><clipPath id="clip0"><rect x="32" y="296" width="60" height="62"/></clipPath></defs><g clip-path="url(#clip0)" transform="translate(-32 -296)"><path d="M2.5 11.1781 5.625 11.1781 5.625 12.4281 2.5 12.4281Z" transform="matrix(1 0 0 1.03333 32 296)"/><path d="M6.77187 8.89188 4.6025 6.67125 5.48625 5.76688 7.65562 7.98688 6.77187 8.89188Z" transform="matrix(1 0 0 1.03333 32 296)"/><path d="M14.375 11.875C14.375 13.9461 12.6961 15.625 10.625 15.625 8.55393 15.625 6.875 13.9461 6.875 11.875 6.875 9.80393 8.55393 8.125 10.625 8.125 12.6961 8.125 14.375 9.80393 14.375 11.875Z" transform="matrix(1 0 0 1.03333 32 296)"/><path d="M10 3.67813 11.25 3.67813 11.25 6.80313 10 6.80313Z" transform="matrix(1 0 0 1.03333 32 296)"/><path d="M15.625 11.1781 18.75 11.1781 18.75 12.4281 15.625 12.4281Z" transform="matrix(1 0 0 1.03333 32 296)"/><path d="M14.4781 8.89188 16.6475 6.67125 15.7638 5.76688 13.5944 7.98688 14.4781 8.89188Z" transform="matrix(1 0 0 1.03333 32 296)"/><path d="M6.77187 14.7863 4.6025 17.0069 5.48625 17.9113 7.65562 15.6913 6.77187 14.7863Z" transform="matrix(1 0 0 1.03333 32 296)"/><path d="M10 16.875 11.25 16.875 11.25 20 10 20Z" transform="matrix(1 0 0 1.03333 32 296)"/><path d="M14.4781 14.7863 16.6475 17.0069 15.7638 17.9113 13.5944 15.6913 14.4781 14.7863Z" transform="matrix(1 0 0 1.03333 32 296)"/><path d="M28.5944 30.8719 39.2806 30.8719 38.51 24.8631 29.365 24.8631 28.5944 30.8719Z" transform="matrix(1 0 0 1.03333 32 296)"/><path d="M40.7094 22.3631 49.5737 22.3631 47.1912 17.0681 40.0306 17.0681 40.7094 22.3631Z" transform="matrix(1 0 0 1.03333 32 296)"/><path d="M41.8006 30.8719 53.4031 30.8719 50.6994 24.8631 41.03 24.8631 41.8006 30.8719Z" transform="matrix(1 0 0 1.03333 32 296)"/><path d="M42.1212 33.3719 42.975 40.035 57.4994 40.035 57.4994 39.9756 57.5 39.9756 54.5281 33.3719 42.1212 33.3719Z" transform="matrix(1 0 0 1.03333 32 296)"/><path d="M29.685 22.3631 38.1894 22.3631 37.5106 17.0681 30.3638 17.0681 29.685 22.3631Z" transform="matrix(1 0 0 1.03333 32 296)"/><path d="M57.4994 46.5212 57.4994 42.535 10.375 42.535 10.375 46.5212 32.0625 46.5212 32.0625 52.5 25.4288 52.5 25.4288 56.25 42.4456 56.25 42.4456 52.5 35.8125 52.5 35.8125 46.5212 57.4994 46.5212Z" transform="matrix(1 0 0 1.03333 32 296)"/><path d="M26.0744 30.8719 26.845 24.8631 17.1763 24.8631 14.4725 30.8719 26.0744 30.8719Z" transform="matrix(1 0 0 1.03333 32 296)"/><path d="M40.455 40.035 39.6012 33.3719 28.2744 33.3719 27.42 40.035 40.455 40.035Z" transform="matrix(1 0 0 1.03333 32 296)"/><path d="M24.9 40.035 25.7537 33.3719 13.3475 33.3719 10.375 39.9756 10.375 40.035 24.9 40.035Z" transform="matrix(1 0 0 1.03333 32 296)"/><path d="M27.165 22.3631 27.8438 17.0681 20.6844 17.0681 18.3013 22.3631 27.165 22.3631Z" transform="matrix(1 0 0 1.03333 32 296)"/></g></svg>