<svg width="121" height="116" xmlns="http://www.w3.org/2000/svg" xmlns:xlink="http://www.w3.org/1999/xlink" overflow="hidden"><defs><clipPath id="clip0"><rect x="165" y="105" width="121" height="116"/></clipPath></defs><g clip-path="url(#clip0)" transform="translate(-165 -105)"><path d="M106.333 47.125 101.5 47.125 101.5 33.8333C101.5 31.175 99.325 29 96.6667 29L9.66667 29C7.00833 29 4.83333 31.175 4.83333 33.8333L4.83333 82.1667C4.83333 84.825 7.00833 87 9.66667 87L96.6667 87C99.325 87 101.5 84.825 101.5 82.1667L101.5 68.875 106.333 68.875C108.992 68.875 111.167 66.7 111.167 64.0417L111.167 51.9583C111.167 49.3 108.992 47.125 106.333 47.125ZM94.25 79.75 12.0833 79.75 12.0833 36.25 94.25 36.25 94.25 79.75Z" fill="#FFC000" transform="matrix(1.0431 0 0 1 165 105)"/><path d="M16.9167 41.0833 89.4167 41.0833 89.4167 74.9167 16.9167 74.9167Z" fill="#FFC000" transform="matrix(1.0431 0 0 1 165 105)"/></g></svg>